<?xml version="1.0" encoding="utf-8"?>
<!-- Generator: Adobe Illustrator 26.5.0, SVG Export Plug-In . SVG Version: 6.00 Build 0)  -->
<svg version="1.1" id="Calque_1" xmlns="http://www.w3.org/2000/svg" xmlns:xlink="http://www.w3.org/1999/xlink" x="0px" y="0px"
	 viewBox="0 0 244.1 244.1" style="enable-background:new 0 0 244.1 244.1;" xml:space="preserve">
<style type="text/css">
	.st0{fill:#2647A4;stroke:#2647A4;stroke-width:8;stroke-miterlimit:10;}
	.st1{fill:#2DE8B6;}
</style>
<circle class="st0" cx="122.1" cy="122" r="118"/>
<g>
	<g>
		<path class="st1" d="M47.8,131.3c-2.8,1.1-5.6,1.3-8.5,0.8c-2.8-0.5-5.4-1.9-7.8-4.1c-2.4-2.2-4.3-5.3-5.8-9.2s-2-7.5-1.6-10.8
			s1.5-6.1,3.4-8.4c1.9-2.3,4.3-4.1,7.3-5.2c2.5-0.9,4.7-1.3,6.8-1.2c2,0.2,3.8,0.6,5.4,1.5c1.6,0.8,2.8,1.9,3.9,3.1
			c1,1.2,1.8,2.4,2.2,3.6c0,0,0,0.1,0.1,0.1c0,0,0,0.1,0.1,0.1l-7.3,2.7c0,0,0-0.1-0.1-0.1c0,0,0-0.1-0.1-0.1
			c-0.3-0.7-0.7-1.4-1.2-2s-1.2-1.1-2-1.5S41,100,40.1,100c-0.9-0.1-1.9,0.1-3,0.5c-1.4,0.5-2.6,1.4-3.6,2.7s-1.5,3-1.7,5.1
			s0.4,4.7,1.5,7.7c0.9,2.3,1.8,4.2,2.9,5.6c1.1,1.4,2.1,2.4,3.3,3.1c1.1,0.6,2.3,1,3.4,1s2.2-0.1,3.3-0.5c1.5-0.6,2.6-1.3,3.4-2.1
			c0.8-0.9,1.3-1.8,1.6-2.7c0.3-0.9,0.4-1.8,0.3-2.6l-0.9-2.3l-7,2.7l-2-5.4l13.7-5.1l6.7,17.8l-3.9,1.5l-2.2-3.7
			c0,0.4-0.1,0.9-0.4,1.5c-0.2,0.7-0.6,1.4-1.2,2.2s-1.4,1.6-2.4,2.4C50.8,130,49.5,130.7,47.8,131.3z"/>
		<path class="st1" d="M76.8,120.4c-1.9,0.7-3.6,1-5.3,1c-1.7,0-3.1-0.5-4.4-1.3c-1.2-0.8-2.2-2-2.8-3.6c-0.7-1.8-0.7-3.5-0.2-5
			c0.6-1.5,1.6-2.9,3-4.1c1.4-1.2,3.1-2.3,4.9-3.2c2.7-1.3,4.6-2.3,5.5-2.9c1-0.6,1.4-1.2,1.2-1.8l0,0c-0.4-0.9-1.1-1.5-2.2-1.7
			s-2.5,0-4.1,0.6c-1.7,0.6-2.9,1.5-3.6,2.4c-0.7,1-0.8,2.1-0.3,3.3l-7.3,2.8c-0.8-2.1-0.9-4-0.3-5.8s1.7-3.5,3.3-4.9
			c1.6-1.5,3.7-2.6,6.1-3.5c2.2-0.8,4.5-1.3,6.6-1.3c2.2,0,4.1,0.4,5.8,1.3s2.9,2.4,3.7,4.5c0.1,0.3,0.3,0.7,0.4,1
			c0.1,0.3,0.2,0.7,0.4,1l3.4,9.1c0.2,0.7,0.5,1.3,0.8,1.9c0.3,0.6,0.6,1.1,0.9,1.5c0.4,0.5,0.7,0.9,1.1,1.2s0.7,0.5,0.9,0.5
			l-7.3,2.8c-0.2-0.1-0.4-0.2-0.8-0.5s-0.7-0.6-1.1-1c-0.4-0.5-0.8-1-1.1-1.5c-0.3-0.5-0.6-1.2-0.9-2l1.9,0.5
			c-0.1,1.2-0.4,2.4-1.1,3.6s-1.7,2.2-2.9,3.1C79.8,119,78.4,119.8,76.8,120.4z M76.7,114c1.2-0.4,2.2-1.1,3-1.9
			c0.9-0.8,1.4-1.8,1.7-2.9c0.3-1.2,0.2-2.5-0.4-4l-1-2.6l2.5,1.1c-0.9,0.8-2,1.6-3.3,2.3c-1.3,0.8-2.6,1.5-3.9,2.2
			c-1.6,0.8-2.7,1.5-3.4,2.2c-0.7,0.7-0.8,1.5-0.5,2.4s0.9,1.4,1.8,1.6C74.2,114.7,75.3,114.5,76.7,114z"/>
		<path class="st1" d="M91.7,71.1l14.2,37.6l-7.4,2.8L84.3,73.9L91.7,71.1z"/>
		<path class="st1" d="M110.7,94.9l-1.9-4.9l17-6.4l-0.3,1.5c0-0.1-0.1-0.3-0.1-0.4s-0.1-0.2-0.1-0.3c-0.3-0.9-0.9-1.7-1.6-2.4
			c-0.8-0.7-1.7-1.1-2.8-1.3c-1.1-0.2-2.4,0-3.8,0.5c-1.4,0.5-2.5,1.3-3.3,2.3s-1.2,2.1-1.4,3.5c-0.1,1.3,0.1,2.8,0.7,4.4
			c0.6,1.6,1.4,2.9,2.4,3.9s2.1,1.6,3.3,1.8c1.3,0.2,2.7,0.1,4.2-0.5c1-0.4,1.8-0.8,2.5-1.2s1.2-0.9,1.5-1.4s0.6-0.9,0.7-1.4
			c0.1-0.4,0.1-0.8,0-1.2l7.4-2.8c0.3,1.1,0.3,2.3,0.1,3.6c-0.3,1.3-0.8,2.5-1.6,3.8s-2,2.4-3.4,3.5s-3.2,2-5.3,2.8
			c-2.8,1.1-5.5,1.4-8,1.1c-2.5-0.3-4.7-1.3-6.7-2.9c-1.9-1.6-3.4-3.7-4.3-6.3c-1-2.6-1.3-5.2-0.9-7.6c0.4-2.4,1.5-4.6,3.2-6.5
			s3.9-3.4,6.7-4.4c2.8-1.1,5.5-1.4,8-1.1c2.5,0.4,4.7,1.3,6.6,2.9c1.9,1.6,3.3,3.8,4.4,6.5c0.2,0.4,0.3,0.8,0.4,1.2
			c0.1,0.4,0.2,0.7,0.2,0.8L110.7,94.9z"/>
		<path class="st1" d="M143.2,94.7l-9.6-25.6l7.5-2.8l3.3,8.8l-1.9-0.4c-0.3-1.3-0.4-2.5-0.3-3.7s0.4-2.3,0.8-3.3
			c0.5-1,1.1-1.9,2-2.7c0.9-0.8,2-1.5,3.3-1.9c1-0.4,1.9-0.6,2.5-0.7s1.1-0.1,1.2-0.1l1.3,7.2c-0.2,0-0.5,0-1.1,0s-1.2,0.2-2,0.5
			c-1.3,0.5-2.3,1.1-3,1.9s-1.2,1.6-1.4,2.5c-0.3,0.9-0.3,1.8-0.2,2.8s0.3,1.9,0.7,2.8l4.5,12.1L143.2,94.7z"/>
		<path class="st1" d="M157.5,55.3c-1.2,0.4-2.3,0.5-3.4,0.2c-1.1-0.3-1.8-1-2.3-2.1c-0.4-1.1-0.3-2.2,0.3-3.1s1.5-1.6,2.7-2.1
			c1.2-0.4,2.3-0.5,3.4-0.2c1.1,0.3,1.8,1,2.3,2.1c0.4,1.1,0.3,2.1-0.3,3.1C159.6,54.2,158.7,54.9,157.5,55.3z M165.1,86.5
			l-9.6-25.6l7.4-2.8l9.6,25.6L165.1,86.5z"/>
		<path class="st1" d="M176.9,70l-1.9-4.9l17-6.4l-0.2,1.5c0-0.1-0.1-0.3-0.1-0.4s-0.1-0.2-0.1-0.3c-0.3-0.9-0.9-1.7-1.6-2.4
			c-0.8-0.7-1.7-1.1-2.8-1.3c-1.1-0.2-2.4,0-3.8,0.5s-2.5,1.3-3.3,2.3s-1.2,2.1-1.4,3.5c-0.1,1.3,0.1,2.8,0.7,4.4
			c0.6,1.6,1.4,2.9,2.4,3.9s2.1,1.6,3.3,1.8c1.3,0.2,2.7,0.1,4.2-0.5c1-0.4,1.8-0.8,2.5-1.2c0.7-0.5,1.2-0.9,1.5-1.4
			s0.6-0.9,0.7-1.4c0.1-0.4,0.1-0.8,0-1.2l7.4-2.8c0.3,1.1,0.3,2.3,0.1,3.6c-0.3,1.3-0.8,2.5-1.6,3.8s-2,2.4-3.4,3.5s-3.2,2-5.3,2.8
			c-2.8,1.1-5.5,1.4-8,1.1s-4.7-1.3-6.7-2.9c-1.9-1.6-3.4-3.7-4.3-6.3c-1-2.6-1.3-5.2-0.9-7.6c0.4-2.4,1.5-4.6,3.2-6.5
			s3.9-3.4,6.7-4.4c2.8-1.1,5.5-1.4,8-1.1c2.5,0.4,4.7,1.3,6.6,2.9c1.9,1.6,3.3,3.8,4.4,6.5c0.2,0.4,0.3,0.8,0.4,1.2
			c0.1,0.4,0.2,0.7,0.2,0.8L176.9,70z"/>
		<path class="st1" d="M81.4,196.8l-7.5,2.8l-13.3-35.5l12.2-4.6c2.7-1,5.2-1.4,7.6-1.1c2.3,0.3,4.3,1.2,6,2.6
			c1.7,1.4,3,3.2,3.8,5.5c0.8,2.2,1.1,4.5,0.8,6.7s-1.3,4.3-2.8,6.1s-3.6,3.3-6.3,4.3l-4.7,1.8L81.4,196.8z M76.3,183.1l-4.7-2.2
			l7.2-2.7c1.3-0.5,2.2-1.1,3-2s1.2-1.9,1.3-3c0.1-1.2,0-2.4-0.6-3.8c-0.5-1.4-1.2-2.4-2.1-3.1c-0.8-0.7-1.8-1.1-2.9-1.2
			c-1.1-0.1-2.3,0.1-3.6,0.6l-7.2,2.7l2-4.8L76.3,183.1z"/>
		<path class="st1" d="M103.7,188.4l-14.2-37.6L97,148l14.2,37.6L103.7,188.4z M121.7,181.6l-3.4-9.1c-0.1-0.3-0.3-0.8-0.5-1.3
			c-0.2-0.6-0.4-1.1-0.6-1.7c-0.2-0.6-0.4-1-0.5-1.4c-0.7-2-1.7-3.3-2.8-4.1s-2.6-0.8-4.5-0.1c-1.2,0.5-2.2,1.1-2.8,1.9
			c-0.6,0.8-1,1.7-1.1,2.8c-0.1,1,0.1,2.2,0.5,3.3l-2.7-0.7c-0.8-2.1-1.1-4.2-0.7-6.1c0.3-2,1.1-3.7,2.4-5.2c1.3-1.5,3-2.7,5.1-3.5
			c3.1-1.2,5.8-1.1,8.1,0.1c2.3,1.2,4,3.5,5.3,6.8c0.3,0.8,0.7,1.8,1.1,3c0.4,1.2,1,2.5,1.5,4.1l3.2,8.5L121.7,181.6z"/>
		<path class="st1" d="M147.8,172.4c-2.8,1-5.4,1.4-7.9,1c-2.5-0.3-4.8-1.3-6.7-2.8c-1.9-1.6-3.4-3.6-4.4-6.3
			c-1-2.6-1.3-5.1-0.8-7.6c0.4-2.4,1.5-4.6,3.2-6.5s3.9-3.4,6.7-4.4s5.4-1.4,7.9-1.1c2.5,0.3,4.8,1.3,6.7,2.8
			c1.9,1.6,3.4,3.6,4.4,6.2c1,2.6,1.3,5.1,0.8,7.6c-0.4,2.4-1.5,4.6-3.1,6.6C152.8,169.9,150.5,171.3,147.8,172.4z M145.6,166.5
			c1.3-0.5,2.3-1.2,3-2.2s1.2-2.1,1.3-3.4c0.1-1.3-0.1-2.7-0.7-4.2c-0.6-1.5-1.3-2.7-2.3-3.6c-0.9-0.9-2-1.5-3.2-1.7
			s-2.4-0.1-3.7,0.4s-2.3,1.2-3,2.2s-1.2,2.1-1.3,3.4c-0.1,1.3,0.1,2.7,0.7,4.2c0.6,1.5,1.3,2.7,2.3,3.6s2,1.5,3.2,1.7
			C143,167.1,144.3,167,145.6,166.5z"/>
		<path class="st1" d="M179,160.6c-1,0.4-2,0.7-3.1,0.9s-2.2,0.2-3.3,0.1s-2.1-0.6-3-1.4c-0.9-0.8-1.7-2-2.3-3.6
			c-0.1-0.4-0.3-0.7-0.4-1.1c-0.1-0.4-0.3-0.7-0.4-1.1l-4.1-10.8l-5.9,2.2l-2.2-5.8l1.7-0.6c1-0.4,1.7-0.7,2.3-1
			c0.5-0.3,0.9-0.7,1-1.1c0.2-0.4,0.1-1,0-1.8c-0.2-0.7-0.5-1.7-1-3l-1.2-3.2l7.5-2.8l3.2,8.4l7.4-2.8l2.2,5.8l-7.4,2.8l3.5,9.2
			c0.1,0.3,0.2,0.6,0.3,0.8c0.1,0.3,0.2,0.5,0.3,0.8c0.4,1.1,0.9,2,1.4,2.5c0.5,0.6,1.3,0.7,2.4,0.3c0.5-0.2,1-0.4,1.5-0.7
			c0.4-0.3,0.8-0.5,1-0.7l2.1,5.6c-0.3,0.3-0.7,0.6-1.3,0.9C180.5,160,179.8,160.3,179,160.6z"/>
		<path class="st1" d="M202.3,151.8c-2.8,1-5.4,1.4-7.9,1c-2.5-0.3-4.8-1.3-6.7-2.8c-1.9-1.6-3.4-3.6-4.4-6.3
			c-1-2.6-1.3-5.1-0.8-7.6c0.4-2.4,1.5-4.6,3.2-6.5c1.7-1.9,3.9-3.4,6.7-4.4s5.4-1.4,7.9-1.1c2.5,0.3,4.8,1.3,6.7,2.8
			c1.9,1.5,3.4,3.6,4.4,6.2c1,2.6,1.3,5.1,0.8,7.6c-0.4,2.4-1.5,4.6-3.1,6.6C207.3,149.3,205.1,150.8,202.3,151.8z M200.1,145.9
			c1.3-0.5,2.3-1.2,3-2.2s1.2-2.1,1.3-3.4c0.1-1.3-0.1-2.7-0.7-4.2c-0.6-1.5-1.3-2.7-2.3-3.6c-0.9-0.9-2-1.5-3.2-1.7
			s-2.4-0.1-3.7,0.4s-2.3,1.2-3,2.2s-1.2,2.1-1.3,3.4c-0.1,1.3,0.1,2.7,0.7,4.2c0.6,1.5,1.3,2.7,2.3,3.6s2,1.5,3.2,1.7
			C197.6,146.5,198.8,146.4,200.1,145.9z"/>
	</g>
</g>
</svg>
