<?xml version="1.0" encoding="utf-8"?>
<!-- Generator: Adobe Illustrator 26.5.0, SVG Export Plug-In . SVG Version: 6.00 Build 0)  -->
<svg version="1.1" id="Calque_1" xmlns="http://www.w3.org/2000/svg" xmlns:xlink="http://www.w3.org/1999/xlink" x="0px" y="0px"
	 viewBox="0 0 350 350" style="enable-background:new 0 0 350 350;" xml:space="preserve">
<style type="text/css">
	.st0{fill:#2647A4;stroke:#2647A4;stroke-width:8;stroke-miterlimit:10;}
	.st1{fill:#2DE8B6;}
</style>
<circle class="st0" cx="163.5" cy="160" r="118"/>
<g>
	<g>
		<path class="st1" d="M89.2,169.3c-2.8,1.1-5.6,1.3-8.5,0.8c-2.8-0.5-5.4-1.9-7.8-4.1c-2.4-2.2-4.3-5.3-5.8-9.2s-2-7.5-1.6-10.8
			s1.5-6.1,3.4-8.4c1.9-2.3,4.3-4.1,7.3-5.2c2.5-0.9,4.7-1.3,6.8-1.2c2,0.2,3.8,0.6,5.4,1.5c1.6,0.8,2.8,1.9,3.9,3.1
			c1,1.2,1.8,2.4,2.2,3.6c0,0,0,0.1,0.1,0.1c0,0,0,0.1,0.1,0.1l-7.3,2.7c0,0,0-0.1-0.1-0.1c0,0,0-0.1-0.1-0.1
			c-0.3-0.7-0.7-1.4-1.2-2s-1.2-1.1-2-1.5s-1.6-0.6-2.5-0.6c-0.9-0.1-1.9,0.1-3,0.5c-1.4,0.5-2.6,1.4-3.6,2.7s-1.5,3-1.7,5.1
			s0.4,4.7,1.5,7.7c0.9,2.3,1.8,4.2,2.9,5.6c1.1,1.4,2.1,2.4,3.3,3.1c1.1,0.6,2.3,1,3.4,1s2.2-0.1,3.3-0.5c1.5-0.6,2.6-1.3,3.4-2.1
			c0.8-0.9,1.3-1.8,1.6-2.7c0.3-0.9,0.4-1.8,0.3-2.6l-0.9-2.3l-7,2.7l-2-5.4l13.7-5.1l6.7,17.8l-3.9,1.5l-2.2-3.7
			c0,0.4-0.1,0.9-0.4,1.5c-0.2,0.7-0.6,1.4-1.2,2.2s-1.4,1.6-2.4,2.4C92.2,168,90.9,168.7,89.2,169.3z"/>
		<path class="st1" d="M118.2,158.4c-1.9,0.7-3.6,1-5.3,1c-1.7,0-3.1-0.5-4.4-1.3c-1.2-0.8-2.2-2-2.8-3.6c-0.7-1.8-0.7-3.5-0.2-5
			c0.6-1.5,1.6-2.9,3-4.1c1.4-1.2,3.1-2.3,4.9-3.2c2.7-1.3,4.6-2.3,5.5-2.9c1-0.6,1.4-1.2,1.2-1.8l0,0c-0.4-0.9-1.1-1.5-2.2-1.7
			s-2.5,0-4.1,0.6c-1.7,0.6-2.9,1.5-3.6,2.4c-0.7,1-0.8,2.1-0.3,3.3l-7.3,2.8c-0.8-2.1-0.9-4-0.3-5.8s1.7-3.5,3.3-4.9
			c1.6-1.5,3.7-2.6,6.1-3.5c2.2-0.8,4.5-1.3,6.6-1.3c2.2,0,4.1,0.4,5.8,1.3s2.9,2.4,3.7,4.5c0.1,0.3,0.3,0.7,0.4,1
			c0.1,0.3,0.2,0.7,0.4,1l3.4,9.1c0.2,0.7,0.5,1.3,0.8,1.9c0.3,0.6,0.6,1.1,0.9,1.5c0.4,0.5,0.7,0.9,1.1,1.2s0.7,0.5,0.9,0.5
			l-7.3,2.8c-0.2-0.1-0.4-0.2-0.8-0.5s-0.7-0.6-1.1-1c-0.4-0.5-0.8-1-1.1-1.5c-0.3-0.5-0.6-1.2-0.9-2l1.9,0.5
			c-0.1,1.2-0.4,2.4-1.1,3.6s-1.7,2.2-2.9,3.1C121.2,157,119.8,157.8,118.2,158.4z M118.1,152c1.2-0.4,2.2-1.1,3-1.9
			c0.9-0.8,1.4-1.8,1.7-2.9c0.3-1.2,0.2-2.5-0.4-4l-1-2.6l2.5,1.1c-0.9,0.8-2,1.6-3.3,2.3c-1.3,0.8-2.6,1.5-3.9,2.2
			c-1.6,0.8-2.7,1.5-3.4,2.2c-0.7,0.7-0.8,1.5-0.5,2.4s0.9,1.4,1.8,1.6C115.6,152.7,116.7,152.5,118.1,152z"/>
		<path class="st1" d="M133.1,109.1l14.2,37.6l-7.4,2.8l-14.2-37.6L133.1,109.1z"/>
		<path class="st1" d="M152.1,132.9l-1.9-4.9l17-6.4l-0.3,1.5c0-0.1-0.1-0.3-0.1-0.4s-0.1-0.2-0.1-0.3c-0.3-0.9-0.9-1.7-1.6-2.4
			c-0.8-0.7-1.7-1.1-2.8-1.3c-1.1-0.2-2.4,0-3.8,0.5c-1.4,0.5-2.5,1.3-3.3,2.3s-1.2,2.1-1.4,3.5c-0.1,1.3,0.1,2.8,0.7,4.4
			c0.6,1.6,1.4,2.9,2.4,3.9s2.1,1.6,3.3,1.8c1.3,0.2,2.7,0.1,4.2-0.5c1-0.4,1.8-0.8,2.5-1.2s1.2-0.9,1.5-1.4s0.6-0.9,0.7-1.4
			c0.1-0.4,0.1-0.8,0-1.2l7.4-2.8c0.3,1.1,0.3,2.3,0.1,3.6c-0.3,1.3-0.8,2.5-1.6,3.8s-2,2.4-3.4,3.5s-3.2,2-5.3,2.8
			c-2.8,1.1-5.5,1.4-8,1.1c-2.5-0.3-4.7-1.3-6.7-2.9c-1.9-1.6-3.4-3.7-4.3-6.3c-1-2.6-1.3-5.2-0.9-7.6c0.4-2.4,1.5-4.6,3.2-6.5
			s3.9-3.4,6.7-4.4c2.8-1.1,5.5-1.4,8-1.1c2.5,0.4,4.7,1.3,6.6,2.9c1.9,1.6,3.3,3.8,4.4,6.5c0.2,0.4,0.3,0.8,0.4,1.2
			c0.1,0.4,0.2,0.7,0.2,0.8L152.1,132.9z"/>
		<path class="st1" d="M184.6,132.7l-9.6-25.6l7.5-2.8l3.3,8.8l-1.9-0.4c-0.3-1.3-0.4-2.5-0.3-3.7s0.4-2.3,0.8-3.3
			c0.5-1,1.1-1.9,2-2.7c0.9-0.8,2-1.5,3.3-1.9c1-0.4,1.9-0.6,2.5-0.7s1.1-0.1,1.2-0.1l1.3,7.2c-0.2,0-0.5,0-1.1,0s-1.2,0.2-2,0.5
			c-1.3,0.5-2.3,1.1-3,1.9s-1.2,1.6-1.4,2.5c-0.3,0.9-0.3,1.8-0.2,2.8s0.3,1.9,0.7,2.8l4.5,12.1L184.6,132.7z"/>
		<path class="st1" d="M198.9,93.3c-1.2,0.4-2.3,0.5-3.4,0.2c-1.1-0.3-1.8-1-2.3-2.1c-0.4-1.1-0.3-2.2,0.3-3.1s1.5-1.6,2.7-2.1
			c1.2-0.4,2.3-0.5,3.4-0.2c1.1,0.3,1.8,1,2.3,2.1c0.4,1.1,0.3,2.1-0.3,3.1C201,92.2,200.1,92.9,198.9,93.3z M206.5,124.5l-9.6-25.6
			l7.4-2.8l9.6,25.6L206.5,124.5z"/>
		<path class="st1" d="M218.3,108l-1.9-4.9l17-6.4l-0.2,1.5c0-0.1-0.1-0.3-0.1-0.4s-0.1-0.2-0.1-0.3c-0.3-0.9-0.9-1.7-1.6-2.4
			c-0.8-0.7-1.7-1.1-2.8-1.3c-1.1-0.2-2.4,0-3.8,0.5s-2.5,1.3-3.3,2.3s-1.2,2.1-1.4,3.5c-0.1,1.3,0.1,2.8,0.7,4.4
			c0.6,1.6,1.4,2.9,2.4,3.9s2.1,1.6,3.3,1.8c1.3,0.2,2.7,0.1,4.2-0.5c1-0.4,1.8-0.8,2.5-1.2c0.7-0.5,1.2-0.9,1.5-1.4
			s0.6-0.9,0.7-1.4c0.1-0.4,0.1-0.8,0-1.2l7.4-2.8c0.3,1.1,0.3,2.3,0.1,3.6c-0.3,1.3-0.8,2.5-1.6,3.8s-2,2.4-3.4,3.5s-3.2,2-5.3,2.8
			c-2.8,1.1-5.5,1.4-8,1.1s-4.7-1.3-6.7-2.9c-1.9-1.6-3.4-3.7-4.3-6.3c-1-2.6-1.3-5.2-0.9-7.6c0.4-2.4,1.5-4.6,3.2-6.5
			s3.9-3.4,6.7-4.4c2.8-1.1,5.5-1.4,8-1.1c2.5,0.4,4.7,1.3,6.6,2.9c1.9,1.6,3.3,3.8,4.4,6.5c0.2,0.4,0.3,0.8,0.4,1.2
			c0.1,0.4,0.2,0.7,0.2,0.8L218.3,108z"/>
		<path class="st1" d="M122.8,234.8l-7.5,2.8L102,202.1l12.2-4.6c2.7-1,5.2-1.4,7.6-1.1c2.3,0.3,4.3,1.2,6,2.6
			c1.7,1.4,3,3.2,3.8,5.5c0.8,2.2,1.1,4.5,0.8,6.7s-1.3,4.3-2.8,6.1s-3.6,3.3-6.3,4.3l-4.7,1.8L122.8,234.8z M117.7,221.1l-4.7-2.2
			l7.2-2.7c1.3-0.5,2.2-1.1,3-2s1.2-1.9,1.3-3c0.1-1.2,0-2.4-0.6-3.8c-0.5-1.4-1.2-2.4-2.1-3.1c-0.8-0.7-1.8-1.1-2.9-1.2
			c-1.1-0.1-2.3,0.1-3.6,0.6l-7.2,2.7l2-4.8L117.7,221.1z"/>
		<path class="st1" d="M145.1,226.4l-14.2-37.6l7.5-2.8l14.2,37.6L145.1,226.4z M163.1,219.6l-3.4-9.1c-0.1-0.3-0.3-0.8-0.5-1.3
			c-0.2-0.6-0.4-1.1-0.6-1.7c-0.2-0.6-0.4-1-0.5-1.4c-0.7-2-1.7-3.3-2.8-4.1s-2.6-0.8-4.5-0.1c-1.2,0.5-2.2,1.1-2.8,1.9
			c-0.6,0.8-1,1.7-1.1,2.8c-0.1,1,0.1,2.2,0.5,3.3l-2.7-0.7c-0.8-2.1-1.1-4.2-0.7-6.1c0.3-2,1.1-3.7,2.4-5.2c1.3-1.5,3-2.7,5.1-3.5
			c3.1-1.2,5.8-1.1,8.1,0.1c2.3,1.2,4,3.5,5.3,6.8c0.3,0.8,0.7,1.8,1.1,3c0.4,1.2,1,2.5,1.5,4.1l3.2,8.5L163.1,219.6z"/>
		<path class="st1" d="M189.2,210.4c-2.8,1-5.4,1.4-7.9,1c-2.5-0.3-4.8-1.3-6.7-2.8c-1.9-1.6-3.4-3.6-4.4-6.3
			c-1-2.6-1.3-5.1-0.8-7.6c0.4-2.4,1.5-4.6,3.2-6.5s3.9-3.4,6.7-4.4s5.4-1.4,7.9-1.1c2.5,0.3,4.8,1.3,6.7,2.8
			c1.9,1.6,3.4,3.6,4.4,6.2c1,2.6,1.3,5.1,0.8,7.6c-0.4,2.4-1.5,4.6-3.1,6.6C194.2,207.9,191.9,209.3,189.2,210.4z M187,204.5
			c1.3-0.5,2.3-1.2,3-2.2s1.2-2.1,1.3-3.4c0.1-1.3-0.1-2.7-0.7-4.2c-0.6-1.5-1.3-2.7-2.3-3.6c-0.9-0.9-2-1.5-3.2-1.7
			s-2.4-0.1-3.7,0.4s-2.3,1.2-3,2.2s-1.2,2.1-1.3,3.4c-0.1,1.3,0.1,2.7,0.7,4.2c0.6,1.5,1.3,2.7,2.3,3.6s2,1.5,3.2,1.7
			C184.4,205.1,185.7,205,187,204.5z"/>
		<path class="st1" d="M220.4,198.6c-1,0.4-2,0.7-3.1,0.9s-2.2,0.2-3.3,0.1s-2.1-0.6-3-1.4c-0.9-0.8-1.7-2-2.3-3.6
			c-0.1-0.4-0.3-0.7-0.4-1.1c-0.1-0.4-0.3-0.7-0.4-1.1l-4.1-10.8l-5.9,2.2l-2.2-5.8l1.7-0.6c1-0.4,1.7-0.7,2.3-1
			c0.5-0.3,0.9-0.7,1-1.1c0.2-0.4,0.1-1,0-1.8c-0.2-0.7-0.5-1.7-1-3l-1.2-3.2l7.5-2.8l3.2,8.4l7.4-2.8l2.2,5.8l-7.4,2.8l3.5,9.2
			c0.1,0.3,0.2,0.6,0.3,0.8c0.1,0.3,0.2,0.5,0.3,0.8c0.4,1.1,0.9,2,1.4,2.5c0.5,0.6,1.3,0.7,2.4,0.3c0.5-0.2,1-0.4,1.5-0.7
			c0.4-0.3,0.8-0.5,1-0.7l2.1,5.6c-0.3,0.3-0.7,0.6-1.3,0.9C221.9,198,221.2,198.3,220.4,198.6z"/>
		<path class="st1" d="M243.7,189.8c-2.8,1-5.4,1.4-7.9,1c-2.5-0.3-4.8-1.3-6.7-2.8c-1.9-1.6-3.4-3.6-4.4-6.3
			c-1-2.6-1.3-5.1-0.8-7.6c0.4-2.4,1.5-4.6,3.2-6.5s3.9-3.4,6.7-4.4s5.4-1.4,7.9-1.1c2.5,0.3,4.8,1.3,6.7,2.8s3.4,3.6,4.4,6.2
			c1,2.6,1.3,5.1,0.8,7.6c-0.4,2.4-1.5,4.6-3.1,6.6C248.7,187.3,246.5,188.8,243.7,189.8z M241.5,183.9c1.3-0.5,2.3-1.2,3-2.2
			s1.2-2.1,1.3-3.4c0.1-1.3-0.1-2.7-0.7-4.2c-0.6-1.5-1.3-2.7-2.3-3.6c-0.9-0.9-2-1.5-3.2-1.7s-2.4-0.1-3.7,0.4s-2.3,1.2-3,2.2
			s-1.2,2.1-1.3,3.4c-0.1,1.3,0.1,2.7,0.7,4.2c0.6,1.5,1.3,2.7,2.3,3.6s2,1.5,3.2,1.7C239,184.5,240.2,184.4,241.5,183.9z"/>
	</g>
</g>
</svg>
